<?xml version="1.0" standalone="no"?><!DOCTYPE svg PUBLIC "-//W3C//DTD SVG 1.1//EN" "http://www.w3.org/Graphics/SVG/1.1/DTD/svg11.dtd"><svg t="1700053575034" class="icon" viewBox="0 0 1024 1024" version="1.1" xmlns="http://www.w3.org/2000/svg" p-id="4290" xmlns:xlink="http://www.w3.org/1999/xlink" width="200" height="200"><path d="M158.045 157.985c7.561-15.973 26.64-22.793 42.614-15.23 69.37 32.838 113.337 67.33 131.38 106.548 7.386 16.055 0.358 35.059-15.697 42.445-15.895 7.313-34.68 0.498-42.22-15.218l-0.226-0.479c-10.256-22.294-43.622-48.469-100.62-75.451-15.974-7.562-22.793-26.641-15.231-42.615zM701.445 131.248c6.864-16.285 25.63-23.923 41.916-17.059 16.286 6.865 23.923 25.631 17.06 41.917l-5.522 13.113c-58.336 138.733-99.048 240.895-122.047 306.205l-1.68 4.796a1226.47 1226.47 0 0 0-5.726 16.802l-0.597 1.803 0.439-0.142c26.205-8.495 56.707-14.609 87.108-17.066l1.754-0.137c32.164-2.45 63.062-0.759 90.588 5.601 32.493 7.508 59.871 21.378 80.164 42.376 21.796 22.554 32.353 52.916 33.03 88.071 0.566 29.363-5.781 61.86-17.773 95.22-22.149 61.615-62.234 121.93-100.967 151.089-36.41 27.411-82.192 41.057-128.064 40.84-43.126-0.208-82.911-12.815-105.772-35.45-23.604-23.373-35.128-52.67-28.616-81.848 6.816-30.544 31.731-54.157 70.312-68.978l0.918-0.35 0.533-0.209c26.226-10.205 52.55-10.2 77.12 0.483l0.752 0.33c16.15 7.177 23.425 26.087 16.25 42.237-7.105 15.99-25.71 23.28-41.752 16.46l-0.486-0.21c-8.71-3.87-17.584-3.937-28.49 0.272l-0.838 0.33-0.264 0.099c-11.689 4.405-20.168 9.386-25.574 14.457-3.667 3.44-5.432 6.396-6.018 9.02-1.178 5.279 1.985 13.32 11.184 22.428 9.304 9.213 33.231 16.794 61.047 16.927 32.499 0.155 64.628-9.421 89.266-27.969 27.783-20.915 61.006-70.905 79.232-121.607 19.306-53.709 18.473-96.964-1.052-117.167-21.83-22.588-65.828-32.754-119.868-28.637-24.079 1.834-48.546 6.456-69.883 12.976l-1.543 0.477c-18.153 5.67-32.45 12.307-39.557 17.805l-0.296 0.231c-5.74 4.545-11.69 7.74-19.426 8.955-14.223 2.232-28.107-4.341-35.363-16.833-3.976-6.846-5.224-13.541-5.263-20.918-0.022-4.085 0.38-8.426 1.144-13.24l0.147-0.91c2.732-16.47 10.271-41.91 22.771-77.56 24.114-68.774 67.314-177.012 129.702-325.03z" fill="#397AFF" p-id="4291"></path><path d="M872.967 254.677c17.674 0 32 14.327 32 32 0 17.673-14.326 32-32 32-68.55 0-141.275 21.227-216.21 61.224-66.638 35.568-133.497 85.2-197.296 144.655-32.638 30.415-63.791 62.805-92.137 95.364l-2.284 2.63 0.448 1.074c7.213 17.4 13.551 34.717 18.764 51.545l0.555 1.801c10.969 35.89 16.771 69.188 16.508 99.069-0.313 35.518-9.198 66.142-28.139 90.147-36.742 46.565-90.754 59.914-134.983 35.766-42.983-23.468-63.153-75.236-48.469-129.755 7.401-27.48 34.126-72.811 72.833-124.525a1161.098 1161.098 0 0 1 26.995-34.65l0.645-0.796-0.088-0.183c-13.384-27.567-28.712-54.62-44.662-78.934l-0.977-1.485c-34.455-52.199-69.192-77.064-104.29-78.472l-1.064-0.036c-17.667-0.47-31.608-15.173-31.137-32.84 0.47-17.667 15.174-31.608 32.84-31.137 59.422 1.582 111.803 38.657 157.064 107.228 12.884 19.52 25.381 40.618 36.956 62.428l0.431 0.816 1.518-1.676c24.31-26.82 50.259-53.276 77.202-78.483l1.838-1.717c67.62-63.014 138.865-115.903 210.793-154.295 83.594-44.619 166.314-68.763 246.346-68.763zM318.446 679.856l-0.688 0.905c-1.332 1.757-2.653 3.51-3.964 5.261-34.14 45.613-57.567 85.35-62.272 102.819-7.208 26.762 1.093 48.067 17.34 56.938 7.066 3.858 15.166 4.928 23.497 2.87 10.238-2.531 20.763-9.673 30.574-22.107 18.87-23.915 19.277-69.982 0.668-130.866a461.92 461.92 0 0 0-4.754-14.656l-0.401-1.164z" fill="#3F454B" p-id="4292"></path></svg>